# xmcd CD database file
#
# Track frame offsets:
#	150
#	27596
#	33564
#	56389
#	86427
#	112015
#	142624
#	163920
#	205923
#	216185
#	270210
#
# Disc length: 3928 seconds
#
# Revision: 1
# Processed by: cddbd v1.5.2PL0 Copyright (c) Steve Scherf et al.
# Submitted via: CDex 1.50
#
DISCID=940f560b
DTITLE=Antje Uhle Trio - To Be Continued
DYEAR=2001
DGENRE=Jazz
TTITLE0=High Heels
TTITLE1=Stellen Sie sich mal ein Trio vor
TTITLE2=Walpurgisblues
TTITLE3=Für Alina
TTITLE4=Piano Interlude
TTITLE5=Columbia Rhythms
TTITLE6=Miniatur 1
TTITLE7=Anstatt Daß
TTITLE8=Karussell
TTITLE9=Miniatur IV - Und ein Narr wartet auf Antwort
TTITLE10=Majazztic Steps
EXTD=YEAR: 2001
EXTT0=
EXTT1=
EXTT2=
EXTT3=
EXTT4=
EXTT5=
EXTT6=
EXTT7=
EXTT8=
EXTT9=
EXTT10=
PLAYORDER=
